<svg width="100px" height="100px" data-name="Layer 1" xmlns="http://www.w3.org/2000/svg" viewBox="0 0 288.19 512"><path d="M286.15,358.1c-8.9,49.7-50.7,81.3-110.1,88.3V480a32,32,0,1,1-64,0V445c-.44-.06-.84,0-1.28-.1-26.19-3.76-53.69-13.2-77.94-21.53l-11-3.76A32,32,0,0,1,42.3,359l11.31,3.86c21.59,7.41,46,15.81,66.41,18.73,47.09,6.95,97.06-.84,103.1-34.09,5.19-28.55-11.16-39.89-87.53-60.7l-15-4.12C76.64,270.4-14.7,244.9,2,153c8.85-48.9,50.47-80.52,110-87.49V32a32,32,0,1,1,64,0V67c.44.06.84,0,1.28.11,16.91,2.53,36.22,7.47,60.72,15.55a32,32,0,1,1-20,60.79c-20.72-6.81-37.12-11.08-50.16-13C121.05,123.4,71,131.2,65,164.5c-4.41,24.3,4.75,37.5,72.89,56.5l14.59,4C212.35,241.4,303,266.1,286.15,358.1Z"/></svg>