<svg id="Layer_1" data-name="Layer 1" xmlns="http://www.w3.org/2000/svg" viewBox="0 0 771.23 136"><defs><style>.cls-1{fill:#192945;}.cls-2{fill:#4688f2;}.cls-3{fill:#fff;}</style></defs><path class="cls-1" d="M191.74,33.25v73.5h-17V33.25Zm-5.35,0h37.06V47.84H186.39Zm0,27.61h35V75.35h-35Zm0,31.29h37.06v14.6H186.39Z" transform="translate(-2 -3)"/><path class="cls-1" d="M300.31,33.25l-23.1,35.91,24.57,37.59H279.84L266.4,82.39l-13.86,24.36H230.7l25.09-37.59L233.32,33.25h21.84l11.45,21.31,11.76-21.31Z" transform="translate(-2 -3)"/><path class="cls-1" d="M321.68,79a20.3,20.3,0,0,0,4.78,6.77,20.54,20.54,0,0,0,7,4.3A24.21,24.21,0,0,0,342,91.52a28.54,28.54,0,0,0,9.24-1.36,27.34,27.34,0,0,0,7.08-3.57,35,35,0,0,0,5.52-4.83v19.32a40.7,40.7,0,0,1-9.61,5.25,37.54,37.54,0,0,1-13.28,2,45.56,45.56,0,0,1-16.28-2.78,39.34,39.34,0,0,1-12.81-7.77,33,33,0,0,1-8.35-12.07A41.36,41.36,0,0,1,300.63,70a41.36,41.36,0,0,1,2.88-15.7,33.57,33.57,0,0,1,8.35-12.13,39.12,39.12,0,0,1,12.81-7.82A45.78,45.78,0,0,1,341,31.57a38.58,38.58,0,0,1,13.28,1.94,35.92,35.92,0,0,1,9.61,5.41V58.24a35,35,0,0,0-5.52-4.83,27.34,27.34,0,0,0-7.08-3.57A28.52,28.52,0,0,0,342,48.47a24.43,24.43,0,0,0-8.51,1.47,20.87,20.87,0,0,0-7,4.31A20.3,20.3,0,0,0,321.68,61,22,22,0,0,0,320,70,22,22,0,0,0,321.68,79Z" transform="translate(-2 -3)"/><path class="cls-1" d="M395.44,33.25V81.34a14.72,14.72,0,0,0,1.37,6.56,10.32,10.32,0,0,0,3.93,4.36,12.64,12.64,0,0,0,6.67,1.57,12.2,12.2,0,0,0,6.46-1.57,10,10,0,0,0,3.88-4.36,15.15,15.15,0,0,0,1.32-6.56V33.25h17.74V82.6a29.37,29.37,0,0,1-2.26,12,23.22,23.22,0,0,1-6.3,8.51,26.21,26.21,0,0,1-9.45,5,42.16,42.16,0,0,1-23.15,0,26.4,26.4,0,0,1-9.4-5A22.85,22.85,0,0,1,380,94.62a30.06,30.06,0,0,1-2.21-12V33.25Z" transform="translate(-2 -3)"/><path class="cls-1" d="M469.57,33.25v73.5H451.93V33.25Zm-6.61,0H478.6q9.45,0,15.8,3A21.92,21.92,0,0,1,504,44.75a23.84,23.84,0,0,1,3.26,12.54A24,24,0,0,1,504,69.79a22.12,22.12,0,0,1-9.61,8.56q-6.34,3.09-15.8,3.09H463v-14h14.38a16,16,0,0,0,6.2-1.1,8.14,8.14,0,0,0,3.93-3.26,9.73,9.73,0,0,0,1.32-5.2,9.47,9.47,0,0,0-1.32-5.14,8.6,8.6,0,0,0-3.93-3.26,15.32,15.32,0,0,0-6.2-1.15H463Zm25.72,40.21,23,33.29h-20.9L470.2,73.46Z" transform="translate(-2 -3)"/><path class="cls-1" d="M532.88,87.85a20,20,0,0,0,6,4.51,16.05,16.05,0,0,0,7,1.58,11.3,11.3,0,0,0,4.62-.89,7.22,7.22,0,0,0,3.1-2.52,6.66,6.66,0,0,0,1.1-3.84,7,7,0,0,0-1.41-4.51,13,13,0,0,0-4.62-3.31q-3.21-1.52-8.56-3.62Q537.4,74.2,534,72.52a29.92,29.92,0,0,1-6.41-4.36,23.58,23.58,0,0,1-5.09-6.4,19,19,0,0,1-2-9.19,18.6,18.6,0,0,1,3.42-11.29,21.87,21.87,0,0,1,9.29-7.19,32.42,32.42,0,0,1,12.91-2.52A31,31,0,0,1,558.92,34a28.93,28.93,0,0,1,8.93,6.09,30.43,30.43,0,0,1,5.46,7.46l-13.55,7.56a19.4,19.4,0,0,0-3.57-4.62,14.45,14.45,0,0,0-4.56-3,13.67,13.67,0,0,0-5.2-1,12.13,12.13,0,0,0-4.36.68,5.35,5.35,0,0,0-2.57,1.94,5.2,5.2,0,0,0-.84,2.94,5.87,5.87,0,0,0,1.1,3.52,10.19,10.19,0,0,0,3.15,2.73A37.18,37.18,0,0,0,548,60.71q3,1.2,6.83,2.46a52.62,52.62,0,0,1,7.3,3.42,25.31,25.31,0,0,1,6,4.67,21.38,21.38,0,0,1-2.83,31.81,29.19,29.19,0,0,1-8.77,4.47,33.48,33.48,0,0,1-10.08,1.52,34.27,34.27,0,0,1-23.94-9.5,31.06,31.06,0,0,1-6.93-9.82L528,80.92A35,35,0,0,0,532.88,87.85Z" transform="translate(-2 -3)"/><path class="cls-1" d="M603.55,33.25v73.5h-18V33.25Z" transform="translate(-2 -3)"/><path class="cls-1" d="M617.93,54.41a35.74,35.74,0,0,1,8.3-12.24,36.71,36.71,0,0,1,12.6-7.87,44.32,44.32,0,0,1,15.75-2.73,43.83,43.83,0,0,1,15.69,2.73,36.29,36.29,0,0,1,12.5,7.87,37.48,37.48,0,0,1,8.35,12.24,39.06,39.06,0,0,1,3,15.59,40.64,40.64,0,0,1-2.94,15.64A36.52,36.52,0,0,1,682.93,98a37.71,37.71,0,0,1-12.55,8.14,42,42,0,0,1-15.8,2.89,42.64,42.64,0,0,1-16-2.89A37.52,37.52,0,0,1,626,98a35.29,35.29,0,0,1-8.19-12.39A42,42,0,0,1,615,70,40.28,40.28,0,0,1,617.93,54.41Zm17.22,24.41A19.72,19.72,0,0,0,646,90.47a20.93,20.93,0,0,0,8.56,1.68,20.3,20.3,0,0,0,8.4-1.68,19.55,19.55,0,0,0,6.51-4.62,20.19,20.19,0,0,0,4.2-7A25.75,25.75,0,0,0,675.16,70a27.55,27.55,0,0,0-1.37-8.87,19.07,19.07,0,0,0-4.09-7,19.67,19.67,0,0,0-6.57-4.62,22.62,22.62,0,0,0-17.11,0,19.91,19.91,0,0,0-10.87,11.55,27.53,27.53,0,0,0,0,17.75Z" transform="translate(-2 -3)"/><path class="cls-1" d="M773.23,33.25v77.17L722.41,65.59v41.16h-17V29.57L756,74.41V33.25Z" transform="translate(-2 -3)"/><circle class="cls-2" cx="68" cy="68" r="68"/><g id="Layer_2" data-name="Layer 2"><path class="cls-3" d="M44.22,51a1.52,1.52,0,0,0,.59-.12l1.38-.56a1.53,1.53,0,0,0-1.12-2.84l-1.53.59A1.53,1.53,0,0,0,44.22,51Z" transform="translate(-2 -3)"/><path class="cls-3" d="M30.87,58.93a1.49,1.49,0,0,0,.93-.29c.66-.52,1.33-1,2-1.53A1.53,1.53,0,0,0,32,54.61l-2.12,1.52a1.53,1.53,0,0,0-.27,2.15,1.55,1.55,0,0,0,1.22.59Z" transform="translate(-2 -3)"/><path class="cls-3" d="M37.28,54.53a1.5,1.5,0,0,0,.78-.21c.72-.43,1.46-.84,2.2-1.24A1.53,1.53,0,0,0,39,50.29l-.19.1c-.78.42-1.55.85-2.32,1.3A1.53,1.53,0,0,0,36,53.78,1.5,1.5,0,0,0,37.28,54.53Z" transform="translate(-2 -3)"/><path class="cls-3" d="M25.78,63.39A1.52,1.52,0,0,0,26.85,63l1.07-1A1.52,1.52,0,0,0,28,59.76a1.54,1.54,0,0,0-2.16-.07L24.7,60.78a1.53,1.53,0,0,0,1.08,2.61Z" transform="translate(-2 -3)"/><path class="cls-3" d="M107.14,63a1.53,1.53,0,0,0,2.15-2.17h0l-1.13-1.09a1.54,1.54,0,0,0-2.16.07,1.52,1.52,0,0,0,.07,2.16Z" transform="translate(-2 -3)"/><path class="cls-3" d="M102.23,58.64a1.53,1.53,0,0,0,1.9-2.4c-.7-.55-1.4-1.06-2.13-1.53a1.53,1.53,0,1,0-1.78,2.4Q101.24,57.83,102.23,58.64Z" transform="translate(-2 -3)"/><path class="cls-3" d="M93.79,53.1c.74.39,1.47.8,2.2,1.23a1.52,1.52,0,0,0,1.52-2.62c-.76-.45-1.53-.88-2.32-1.3A1.53,1.53,0,0,0,93.57,53l.19.1Z" transform="translate(-2 -3)"/><path class="cls-3" d="M87.83,50.35l1.38.56a1.53,1.53,0,0,0,1.3-2.76l-.11,0L89,47.51a1.53,1.53,0,0,0-1.12,2.84Z" transform="translate(-2 -3)"/><path class="cls-3" d="M67,69.33a58.11,58.11,0,0,0-24.94,5.6h0c-.92.43-1.82.91-2.71,1.38h-.09l-.39.23c-.83.46-1.64.93-2.45,1.42l-.17.11.14-.08c-1.63,1-3.19,2.09-4.7,3.24l-1.12.85-1.4,1.16c-.48.38-.9.77-1.35,1.16l-.77.72.09-.09-1.3,1.22h-.08a5.36,5.36,0,0,0-1.52,3.85h0v6.29a5.15,5.15,0,0,1,.5-.75,58.64,58.64,0,0,1,16.11-13.3A8.5,8.5,0,0,1,51,83.87a24.09,24.09,0,0,1,7,17v.93a4,4,0,0,0,1.16,2.93,4.18,4.18,0,0,1,1.21,4.12A2.69,2.69,0,0,0,62.57,112a2.47,2.47,0,0,0,.54,0H86.34A2.59,2.59,0,0,0,89,109.54a2.74,2.74,0,0,0,0-.5,7,7,0,0,1-.15-1.44v-1a6.88,6.88,0,0,0-2-4.88l-2.22-2.22a7.23,7.23,0,0,0-5.08-2.26,6.89,6.89,0,0,1-4.93-2L69,89.67a6.89,6.89,0,0,1-2-4.87,8.5,8.5,0,0,1,8.47-8.54,9.07,9.07,0,0,1,1.87.2h.24A51.85,51.85,0,0,1,101.13,88a58.38,58.38,0,0,1,8.65,8.78V90.16a5.43,5.43,0,0,0-1.53-3.86A58.29,58.29,0,0,0,67,69.33Z" transform="translate(-2 -3)"/><path class="cls-3" d="M51.58,54a.87.87,0,0,0,.71-.37L55,49.77a.94.94,0,0,1,1.1-.34l.6.21A22.31,22.31,0,0,0,64,51a.14.14,0,0,1,.13.12s0,0,0,0L62.69,65.07a.87.87,0,0,0,1.65.47L71.6,51H78a8.79,8.79,0,0,0,4.58-1.28,2,2,0,0,0,.7-2.74,2,2,0,0,0-.7-.7A8.79,8.79,0,0,0,78,45H71.6L64.3,30.4a.87.87,0,0,0-1.16-.4.85.85,0,0,0-.49.87L64,44.8a.12.12,0,0,1-.08.09,22.57,22.57,0,0,0-7.18,1.32l-.59.21a1,1,0,0,1-1.1-.33l-2.75-3.84a.89.89,0,0,0-1.25,0,.88.88,0,0,0-.28.75l.92,4.94-.92,5a.89.89,0,0,0,.62,1.09Z" transform="translate(-2 -3)"/></g></svg>